<?xml version="1.0" encoding="UTF-8" standalone="no"?>
<!DOCTYPE svg PUBLIC "-//W3C//DTD SVG 1.1//EN" "http://www.w3.org/Graphics/SVG/1.1/DTD/svg11.dtd">
<svg xmlns="http://www.w3.org/2000/svg" xmlns:xlink="http://www.w3.org/1999/xlink" version="1.1" width="474pt" height="918pt" viewBox="0 0 474 918">
<g enable-background="new">
<g>
<path d="M 0 0 L 474 0 L 474 918 L 0 918 Z " fill="#ffffff"/>
<path stroke-width="2" stroke-linecap="butt" stroke-miterlimit="10" stroke-linejoin="miter" fill="none" stroke="#57c1d9" d="M 90 878 L 60 878 C 54 878 48 884 48 890 L 48 902 C 48 908 54 914 60 914 L 90 914 C 96 914 102 908 102 902 L 102 890 C 102 884 96 878 90 878 "/>
<text xml:space="preserve" transform="matrix(1 0 0 1 0 0)" font-size="9.999756" font-family="DejaVuSans"><tspan y="898.5" x="68.5 74.48985 77.47978">all</tspan></text>
<path stroke-width="2" stroke-linecap="butt" stroke-miterlimit="10" stroke-linejoin="miter" fill="none" stroke="#57d9aa" d="M 119 364 L 45 364 C 39 364 33 370 33 376 L 33 388 C 33 394 39 400 45 400 L 119 400 C 125 400 131 394 131 388 L 131 376 C 131 370 125 364 119 364 "/>
<text xml:space="preserve" transform="matrix(1 0 0 1 0 0)" font-size="9.999756" font-family="DejaVuSans"><tspan y="384.5" x="41 46.989854 50.73976 56.729616 61.97949 67.969348 73.20922 78.4491 83.69897 89.69882 96.43865 103.94847 109.92833 115.928188">process_SCHYPE</tspan></text>
<path stroke-width="2" stroke-linecap="butt" stroke-miterlimit="10" stroke-linejoin="miter" fill="none" stroke="#c0c0c0" d="M 71.074 400.344 C 55.293 427.094 28 480.516 28 530 L 28 753 C 28 795.047 46.801 840.707 60.621 868.594 "/>
<path d="M 63.828 867.184 L 65.262 877.68 L 57.598 870.367 Z M 63.828 867.184 " fill="#c0c0c0"/>
<path stroke-width="2" stroke-linecap="butt" stroke-miterlimit="10" stroke-linejoin="miter" fill="none" stroke="#c0c0c0" d="M 63.828 867.184 L 65.262 877.68 L 57.598 870.367 Z M 63.828 867.184 "/>
<path stroke-width="2" stroke-linecap="butt" stroke-miterlimit="10" stroke-linejoin="miter" fill="none" stroke="#d99d57" d="M 144.5 220 L 113.5 220 C 107.5 220 101.5 226 101.5 232 L 101.5 244 C 101.5 250 107.5 256 113.5 256 L 144.5 256 C 150.5 256 156.5 250 156.5 244 L 156.5 232 C 156.5 226 150.5 220 144.5 220 "/>
<text xml:space="preserve" transform="matrix(1 0 0 1 0 0)" font-size="9.999756" font-family="DejaVuSans"><tspan y="240.5" x="109.5 115.48985 122.239688 129.7495 135.71936 141.71921">SCHYPE</tspan></text>
<path stroke-width="2" stroke-linecap="butt" stroke-miterlimit="10" stroke-linejoin="miter" fill="none" stroke="#c0c0c0" d="M 123.332 256.129 C 115.285 280.438 100.477 325.18 90.941 353.988 "/>
<path d="M 94.156 355.418 L 87.688 363.812 L 87.508 353.219 Z M 94.156 355.418 " fill="#c0c0c0"/>
<path stroke-width="2" stroke-linecap="butt" stroke-miterlimit="10" stroke-linejoin="miter" fill="none" stroke="#c0c0c0" d="M 94.156 355.418 L 87.688 363.812 L 87.508 353.219 Z M 94.156 355.418 "/>
<path stroke-width="2" stroke-linecap="butt" stroke-miterlimit="10" stroke-linejoin="miter" fill="none" stroke="#579ad9" d="M 206.5 292 L 163.5 292 C 157.5 292 151.5 298 151.5 304 L 151.5 316 C 151.5 322 157.5 328 163.5 328 L 206.5 328 C 212.5 328 218.5 322 218.5 316 L 218.5 304 C 218.5 298 212.5 292 206.5 292 "/>
<text xml:space="preserve" transform="matrix(1 0 0 1 0 0)" font-size="9.999756" font-family="DejaVuSans"><tspan y="312.5" x="159.5 166.24983 171.49971 176.74959 182.73944 190.23926 197.72907 203.71892">ALLEDGES</tspan></text>
<path stroke-width="2" stroke-linecap="butt" stroke-miterlimit="10" stroke-linejoin="miter" fill="none" stroke="#c0c0c0" d="M 142.844 256.305 C 149.488 264.609 157.578 274.723 164.887 283.859 "/>
<path d="M 167.801 281.902 L 171.316 291.895 L 162.336 286.273 Z M 167.801 281.902 " fill="#c0c0c0"/>
<path stroke-width="2" stroke-linecap="butt" stroke-miterlimit="10" stroke-linejoin="miter" fill="none" stroke="#c0c0c0" d="M 167.801 281.902 L 171.316 291.895 L 162.336 286.273 Z M 167.801 281.902 "/>
<path stroke-width="2" stroke-linecap="butt" stroke-miterlimit="10" stroke-linejoin="miter" fill="none" stroke="#ced957" d="M 106 148 L 16 148 C 10 148 4 154 4 160 L 4 172 C 4 178 10 184 16 184 L 106 184 C 112 184 118 178 118 172 L 118 160 C 118 154 112 148 106 148 "/>
<text xml:space="preserve" transform="matrix(1 0 0 1 0 0)" font-size="9.999756" font-family="DejaVuSans"><tspan y="168.5" x="12 15.749908 23.989706 29.979559 35.22943 41.229288 47.21914 53.208993 59.208845 64.45872 69.69859 75.68845 81.67831 87.66816 91.41807 97.41792 103.407779">two_node_subgraph</tspan></text>
<path stroke-width="2" stroke-linecap="butt" stroke-miterlimit="10" stroke-linejoin="miter" fill="none" stroke="#c0c0c0" d="M 77.809 184.305 C 86.125 192.863 96.305 203.344 105.391 212.695 "/>
<path d="M 107.926 210.285 L 112.383 219.895 L 102.906 215.16 Z M 107.926 210.285 " fill="#c0c0c0"/>
<path stroke-width="2" stroke-linecap="butt" stroke-miterlimit="10" stroke-linejoin="miter" fill="none" stroke="#c0c0c0" d="M 107.926 210.285 L 112.383 219.895 L 102.906 215.16 Z M 107.926 210.285 "/>
<path stroke-width="2" stroke-linecap="butt" stroke-miterlimit="10" stroke-linejoin="miter" fill="none" stroke="#afd957" d="M 167.5 4 L 90.5 4 C 84.5 4 78.5 10 78.5 16 L 78.5 28 C 78.5 34 84.5 40 90.5 40 L 167.5 40 C 173.5 40 179.5 34 179.5 28 L 179.5 16 C 179.5 10 173.5 4 167.5 4 "/>
<text xml:space="preserve" transform="matrix(1 0 0 1 0 0)" font-size="9.999756" font-family="DejaVuSans"><tspan y="24.5" x="86.5 91.739879 97.72973 100.71966 103.71959 107.4695 112.71937 115.7093 121.69915 125.44906 131.44892 135.19882 141.18869 146.42856 150.17847 153.1684 159.15825 165.1481">split_interactions</tspan></text>
<path stroke-width="2" stroke-linecap="butt" stroke-miterlimit="10" stroke-linejoin="miter" fill="none" stroke="#c0c0c0" d="M 120.797 40.129 C 109.055 64.648 87.352 109.969 73.574 138.742 "/>
<path d="M 76.707 140.305 L 69.23 147.812 L 70.395 137.281 Z M 76.707 140.305 " fill="#c0c0c0"/>
<path stroke-width="2" stroke-linecap="butt" stroke-miterlimit="10" stroke-linejoin="miter" fill="none" stroke="#c0c0c0" d="M 76.707 140.305 L 69.23 147.812 L 70.395 137.281 Z M 76.707 140.305 "/>
<path stroke-width="2" stroke-linecap="butt" stroke-miterlimit="10" stroke-linejoin="miter" fill="none" stroke="#d95757" d="M 235 76 L 137 76 C 131 76 125 82 125 88 L 125 100 C 125 106 131 112 137 112 L 235 112 C 241 112 247 106 247 100 L 247 88 C 247 82 241 76 235 76 "/>
<text xml:space="preserve" transform="matrix(1 0 0 1 0 0)" font-size="9.999756" font-family="DejaVuSans"><tspan y="96.5" x="133 136.74991 142.73976 146.48967 152.48954 158.4894 163.73928 169.72913 175.71898 181.70883 187.7087 192.95858 198.19844 204.1883 210.18814 216.178 219.9279 225.91777 231.90763">three_node_subgraph</tspan></text>
<path stroke-width="2" stroke-linecap="butt" stroke-miterlimit="10" stroke-linejoin="miter" fill="none" stroke="#c0c0c0" d="M 143.09 40.305 C 149.922 48.695 158.258 58.93 165.754 68.137 "/>
<path d="M 168.473 65.93 L 172.07 75.895 L 163.043 70.352 Z M 168.473 65.93 " fill="#c0c0c0"/>
<path stroke-width="2" stroke-linecap="butt" stroke-miterlimit="10" stroke-linejoin="miter" fill="none" stroke="#c0c0c0" d="M 168.473 65.93 L 172.07 75.895 L 163.043 70.352 Z M 168.473 65.93 "/>
<path stroke-width="2" stroke-linecap="butt" stroke-miterlimit="10" stroke-linejoin="miter" fill="none" stroke="#d97657" d="M 247.5 148 L 148.5 148 C 142.5 148 136.5 154 136.5 160 L 136.5 172 C 136.5 178 142.5 184 148.5 184 L 247.5 184 C 253.5 184 259.5 178 259.5 172 L 259.5 160 C 259.5 154 253.5 148 247.5 148 "/>
<text xml:space="preserve" transform="matrix(1 0 0 1 0 0)" font-size="9.999756" font-family="DejaVuSans"><tspan y="168.5" x="144.5 150.48986 156.47972 160.22963 165.4695 171.46936 176.71924 179.70917 185.69902 193.94882 200.69866 208.18846 214.17832 219.42819 225.41805 231.4079 235.1578 241.15766 247.1475">parse_ISMAGS_output</tspan></text>
<path stroke-width="2" stroke-linecap="butt" stroke-miterlimit="10" stroke-linejoin="miter" fill="none" stroke="#c0c0c0" d="M 180.945 184.305 C 172.504 192.863 162.176 203.344 152.957 212.695 "/>
<path d="M 155.371 215.23 L 145.859 219.895 L 150.387 210.316 Z M 155.371 215.23 " fill="#c0c0c0"/>
<path stroke-width="2" stroke-linecap="butt" stroke-miterlimit="10" stroke-linejoin="miter" fill="none" stroke="#c0c0c0" d="M 155.371 215.23 L 145.859 219.895 L 150.387 210.316 Z M 155.371 215.23 "/>
<path stroke-width="2" stroke-linecap="butt" stroke-miterlimit="10" stroke-linejoin="miter" fill="none" stroke="#c0c0c0" d="M 188.965 112.305 C 190.289 120.016 191.879 129.289 193.352 137.887 "/>
<path d="M 196.828 137.449 L 195.066 147.895 L 189.93 138.629 Z M 196.828 137.449 " fill="#c0c0c0"/>
<path stroke-width="2" stroke-linecap="butt" stroke-miterlimit="10" stroke-linejoin="miter" fill="none" stroke="#c0c0c0" d="M 196.828 137.449 L 195.066 147.895 L 189.93 138.629 Z M 196.828 137.449 "/>
<path stroke-width="2" stroke-linecap="butt" stroke-miterlimit="10" stroke-linejoin="miter" fill="none" stroke="#57d98b" d="M 185.5 806 L 78.5 806 C 72.5 806 66.5 812 66.5 818 L 66.5 830 C 66.5 836 72.5 842 78.5 842 L 185.5 842 C 191.5 842 197.5 836 197.5 830 L 197.5 818 C 197.5 812 191.5 806 185.5 806 "/>
<text xml:space="preserve" transform="matrix(1 0 0 1 0 0)" font-size="9.999756" font-family="DejaVuSans"><tspan y="826.5" x="74.5 79.739879 83.489788 89.48964 95.47949 99.2294 105.229259 110.479129 115.719 121.70886 125.45877 131.44863 136.68849 141.93837 147.92824 153.91809 159.91796 165.16783 170.4077 174.15761 180.14746 183.13739">create_cytoscape_style</tspan></text>
<path stroke-width="2" stroke-linecap="butt" stroke-miterlimit="10" stroke-linejoin="miter" fill="none" stroke="#c0c0c0" d="M 117.91 842.305 C 111.078 850.695 102.742 860.93 95.246 870.137 "/>
<path d="M 97.957 872.352 L 88.93 877.895 L 92.527 867.93 Z M 97.957 872.352 " fill="#c0c0c0"/>
<path stroke-width="2" stroke-linecap="butt" stroke-miterlimit="10" stroke-linejoin="miter" fill="none" stroke="#c0c0c0" d="M 97.957 872.352 L 88.93 877.895 L 92.527 867.93 Z M 97.957 872.352 "/>
<path stroke-width="2" stroke-linecap="butt" stroke-miterlimit="10" stroke-linejoin="miter" fill="none" stroke="#88d957" d="M 277.5 734 L 128.5 734 C 122.5 734 116.5 740 116.5 746 L 116.5 758 C 116.5 764 122.5 770 128.5 770 L 277.5 770 C 283.5 770 289.5 764 289.5 758 L 289.5 746 C 289.5 740 283.5 734 277.5 734 "/>
<text xml:space="preserve" transform="matrix(1 0 0 1 0 0)" font-size="9.999756" font-family="DejaVuSans"><tspan y="754.5" x="124.5 128.24991 134.23976 140.22962 145.47949 149.2294 152.21933 158.20919 164.19904 170.1889 173.18883 178.4387 184.42856 190.42842 194.16832 197.16825 202.40811 208.39797 218.13773 224.14759 230.13744 233.88735 239.13722 244.37709 250.36695 253.35688 256.35679 262.34663 267.5965 271.3464 277.33628">functional_enrichment_collector</tspan></text>
<path stroke-width="2" stroke-linecap="butt" stroke-miterlimit="10" stroke-linejoin="miter" fill="none" stroke="#c0c0c0" d="M 185.449 770.305 C 176.766 778.863 166.137 789.344 156.652 798.695 "/>
<path d="M 158.926 801.367 L 149.348 805.895 L 154.012 796.383 Z M 158.926 801.367 " fill="#c0c0c0"/>
<path stroke-width="2" stroke-linecap="butt" stroke-miterlimit="10" stroke-linejoin="miter" fill="none" stroke="#c0c0c0" d="M 158.926 801.367 L 149.348 805.895 L 154.012 796.383 Z M 158.926 801.367 "/>
<path stroke-width="2" stroke-linecap="butt" stroke-miterlimit="10" stroke-linejoin="miter" fill="none" stroke="#d9bc57" d="M 170 657 L 68 657 C 62 657 56 663 56 669 L 56 686 C 56 692 62 698 68 698 L 170 698 C 176 698 182 692 182 686 L 182 669 C 182 663 176 657 170 657 "/>
<text xml:space="preserve" transform="matrix(1 0 0 1 0 0)" font-size="9.999756" font-family="DejaVuSans"><tspan y="669" x="64 67.74991 73.73977 79.72962 84.97949 88.7294 91.71933 97.70918 103.69904 109.688899 112.68883 117.9387 123.92855 129.9284 133.6683 136.66823 141.9081 147.89795 157.63771 163.64757 169.63742">functional_enrichment</tspan><tspan y="680" x="102 105.74991 111.73977 117.72962 122.9695 125.95943 128.95935">runs: 0</tspan><tspan y="691" x="75 80.239879 86.22973 92.22958 97.46946 100.45939 106.45924 111.69912 114.68905 117.67898 125.1888 130.41867 136.40854 142.39839 145.38832 151.38819 157.37804">species: Hsapiens</tspan></text>
<path stroke-width="2" stroke-linecap="butt" stroke-miterlimit="10" stroke-linejoin="miter" fill="none" stroke="#c0c0c0" d="M 141.953 698.312 C 152.352 707.285 164.723 717.965 175.605 727.355 "/>
<path d="M 177.93 724.738 L 183.211 733.922 L 173.355 730.039 Z M 177.93 724.738 " fill="#c0c0c0"/>
<path stroke-width="2" stroke-linecap="butt" stroke-miterlimit="10" stroke-linejoin="miter" fill="none" stroke="#c0c0c0" d="M 177.93 724.738 L 183.211 733.922 L 173.355 730.039 Z M 177.93 724.738 "/>
<path stroke-width="2" stroke-linecap="butt" stroke-miterlimit="10" stroke-linejoin="miter" fill="none" stroke="#57d96c" d="M 291.5 585 L 224.5 585 C 218.5 585 212.5 591 212.5 597 L 212.5 609 C 212.5 615 218.5 621 224.5 621 L 291.5 621 C 297.5 621 303.5 615 303.5 609 L 303.5 597 C 303.5 591 297.5 585 291.5 585 "/>
<text xml:space="preserve" transform="matrix(1 0 0 1 0 0)" font-size="9.999756" font-family="DejaVuSans"><tspan y="605.5" x="220.5 226.48986 232.4797 238.47956 244.47942 248.21932 253.4692 260.21903 263.21894 269.20878 277.44859 282.69847 289.44828">Super_View_RF</tspan></text>
<path stroke-width="2" stroke-linecap="butt" stroke-miterlimit="10" stroke-linejoin="miter" fill="none" stroke="#c0c0c0" d="M 225.059 621.18 C 207.316 630.434 185.129 642.008 165.645 652.172 "/>
<path d="M 167.102 655.359 L 156.617 656.879 L 163.863 649.152 Z M 167.102 655.359 " fill="#c0c0c0"/>
<path stroke-width="2" stroke-linecap="butt" stroke-miterlimit="10" stroke-linejoin="miter" fill="none" stroke="#c0c0c0" d="M 167.102 655.359 L 156.617 656.879 L 163.863 649.152 Z M 167.102 655.359 "/>
<path stroke-width="2" stroke-linecap="butt" stroke-miterlimit="10" stroke-linejoin="miter" fill="none" stroke="#d9bc57" d="M 314 657 L 212 657 C 206 657 200 663 200 669 L 200 686 C 200 692 206 698 212 698 L 314 698 C 320 698 326 692 326 686 L 326 669 C 326 663 320 657 314 657 "/>
<text xml:space="preserve" transform="matrix(1 0 0 1 0 0)" font-size="9.999756" font-family="DejaVuSans"><tspan y="669" x="208 211.74991 217.73976 223.72962 228.97949 232.7294 235.71933 241.70919 247.69904 253.6889 256.6888 261.9387 267.92854 273.92839 277.66828 280.66819 285.90806 291.8979 301.63768 307.64753 313.63737">functional_enrichment</tspan><tspan y="680" x="246 249.74991 255.73975 261.72959 266.96946 269.95939 272.95933">runs: 1</tspan><tspan y="691" x="219 224.23987 230.22972 236.22959 241.46945 244.45938 250.45925 255.69911 258.68904 261.67897 269.18879 274.41865 280.40849 286.39833 289.38825 295.3881 301.37794">species: Hsapiens</tspan></text>
<path stroke-width="2" stroke-linecap="butt" stroke-miterlimit="10" stroke-linejoin="miter" fill="none" stroke="#c0c0c0" d="M 259.184 621.18 C 259.711 628.801 260.344 637.996 260.945 646.68 "/>
<path d="M 264.449 646.664 L 261.648 656.879 L 257.469 647.145 Z M 264.449 646.664 " fill="#c0c0c0"/>
<path stroke-width="2" stroke-linecap="butt" stroke-miterlimit="10" stroke-linejoin="miter" fill="none" stroke="#c0c0c0" d="M 264.449 646.664 L 261.648 656.879 L 257.469 647.145 Z M 264.449 646.664 "/>
<path stroke-width="2" stroke-linecap="butt" stroke-miterlimit="10" stroke-linejoin="miter" fill="none" stroke="#d9bc57" d="M 458 657 L 356 657 C 350 657 344 663 344 669 L 344 686 C 344 692 350 698 356 698 L 458 698 C 464 698 470 692 470 686 L 470 669 C 470 663 464 657 458 657 "/>
<text xml:space="preserve" transform="matrix(1 0 0 1 0 0)" font-size="9.999756" font-family="DejaVuSans"><tspan y="669" x="352 355.7499 361.73976 367.72959 372.97947 376.72938 379.7193 385.70918 391.699 397.68885 400.68876 405.93864 411.92848 417.9283 421.6682 424.66813 429.908 435.89784 445.6376 451.64747 457.6373">functional_enrichment</tspan><tspan y="680" x="390 393.7499 399.73976 405.72959 410.96946 413.95939 416.95933">runs: 2</tspan><tspan y="691" x="363 368.23988 374.2297 380.22956 385.46943 388.45936 394.4592 399.69908 402.689 405.67893 413.18876 418.4186 424.40846 430.3983 433.3882 439.38807 445.3779">species: Hsapiens</tspan></text>
<path stroke-width="2" stroke-linecap="butt" stroke-miterlimit="10" stroke-linejoin="miter" fill="none" stroke="#c0c0c0" d="M 293.312 621.18 C 312.5 630.52 336.543 642.219 357.566 652.449 "/>
<path d="M 359.219 649.359 L 366.68 656.879 L 356.156 655.652 Z M 359.219 649.359 " fill="#c0c0c0"/>
<path stroke-width="2" stroke-linecap="butt" stroke-miterlimit="10" stroke-linejoin="miter" fill="none" stroke="#c0c0c0" d="M 359.219 649.359 L 366.68 656.879 L 356.156 655.652 Z M 359.219 649.359 "/>
<path stroke-width="2" stroke-linecap="butt" stroke-miterlimit="10" stroke-linejoin="miter" fill="none" stroke="#69d957" d="M 299 513 L 201 513 C 195 513 189 519 189 525 L 189 537 C 189 543 195 549 201 549 L 299 549 C 305 549 311 543 311 537 L 311 525 C 311 519 305 513 299 513 "/>
<text xml:space="preserve" transform="matrix(1 0 0 1 0 0)" font-size="9.999756" font-family="DejaVuSans"><tspan y="533.5" x="197 202.98986 208.9797 214.97956 220.97942 224.71932 229.9692 236.71903 239.71895 245.7088 253.9486 259.1985 265.94834 271.9382 274.9381 277.92805 283.9279 289.16777 292.91767 298.90754">Super_View_Collector</tspan></text>
<path stroke-width="2" stroke-linecap="butt" stroke-miterlimit="10" stroke-linejoin="miter" fill="none" stroke="#c0c0c0" d="M 251.977 549.305 C 252.859 557.016 253.918 566.289 254.902 574.887 "/>
<path d="M 258.387 574.562 L 256.047 584.895 L 251.434 575.359 Z M 258.387 574.562 " fill="#c0c0c0"/>
<path stroke-width="2" stroke-linecap="butt" stroke-miterlimit="10" stroke-linejoin="miter" fill="none" stroke="#c0c0c0" d="M 258.387 574.562 L 256.047 584.895 L 251.434 575.359 Z M 258.387 574.562 "/>
<path stroke-width="2" stroke-linecap="butt" stroke-miterlimit="10" stroke-linejoin="miter" fill="none" stroke="#57d9d1" d="M 164 436 L 84 436 C 78 436 72 442 72 448 L 72 465 C 72 471 78 477 84 477 L 164 477 C 170 477 176 471 176 465 L 176 448 C 176 442 170 436 164 436 "/>
<text xml:space="preserve" transform="matrix(1 0 0 1 0 0)" font-size="9.999756" font-family="DejaVuSans"><tspan y="448" x="95 100.98985 106.97971 112.97957 118.97942 122.71934 127.96921 134.71904 137.71897 143.70882">Super_View</tspan><tspan y="459" x="107 110.74991 116.73977 122.72962 127.9695 130.95943 133.95935">runs: 0</tspan><tspan y="470" x="80 85.239879 91.22973 97.22958 102.46946 105.45939 111.45924 116.69912 119.68905 122.67898 130.1888 135.41867 141.40854 147.39839 150.38832 156.38819 162.37804">species: Hsapiens</tspan></text>
<path stroke-width="2" stroke-linecap="butt" stroke-miterlimit="10" stroke-linejoin="miter" fill="none" stroke="#c0c0c0" d="M 158.098 477.121 C 174.453 486.531 194.133 497.852 211.074 507.602 "/>
<path d="M 213.242 504.812 L 220.164 512.832 L 209.754 510.879 Z M 213.242 504.812 " fill="#c0c0c0"/>
<path stroke-width="2" stroke-linecap="butt" stroke-miterlimit="10" stroke-linejoin="miter" fill="none" stroke="#c0c0c0" d="M 213.242 504.812 L 220.164 512.832 L 209.754 510.879 Z M 213.242 504.812 "/>
<path stroke-width="2" stroke-linecap="butt" stroke-miterlimit="10" stroke-linejoin="miter" fill="none" stroke="#577bd9" d="M 226 364 L 196 364 C 190 364 184 370 184 376 L 184 388 C 184 394 190 400 196 400 L 226 400 C 232 400 238 394 238 388 L 238 376 C 238 370 232 364 226 364 "/>
<text xml:space="preserve" transform="matrix(1 0 0 1 0 0)" font-size="9.999756" font-family="DejaVuSans"><tspan y="384.5" x="192.5 198.48986 204.47972 208.22963 214.22949 217.21942 220.20935 226.20922">parallel</tspan></text>
<path stroke-width="2" stroke-linecap="butt" stroke-miterlimit="10" stroke-linejoin="miter" fill="none" stroke="#c0c0c0" d="M 190.383 400.18 C 179.93 408.891 167.016 419.652 155.363 429.363 "/>
<path d="M 157.465 432.168 L 147.543 435.879 L 152.984 426.789 Z M 157.465 432.168 " fill="#c0c0c0"/>
<path stroke-width="2" stroke-linecap="butt" stroke-miterlimit="10" stroke-linejoin="miter" fill="none" stroke="#c0c0c0" d="M 157.465 432.168 L 147.543 435.879 L 152.984 426.789 Z M 157.465 432.168 "/>
<path stroke-width="2" stroke-linecap="butt" stroke-miterlimit="10" stroke-linejoin="miter" fill="none" stroke="#57d9d1" d="M 286 436 L 206 436 C 200 436 194 442 194 448 L 194 465 C 194 471 200 477 206 477 L 286 477 C 292 477 298 471 298 465 L 298 448 C 298 442 292 436 286 436 "/>
<text xml:space="preserve" transform="matrix(1 0 0 1 0 0)" font-size="9.999756" font-family="DejaVuSans"><tspan y="448" x="217 222.98986 228.9797 234.97956 240.97942 244.71932 249.9692 256.71903 259.71894 265.70878">Super_View</tspan><tspan y="459" x="229 232.74991 238.73976 244.72962 249.96949 252.95941 255.95934">runs: 1</tspan><tspan y="470" x="202 207.23987 213.22972 219.22959 224.46945 227.45938 233.45925 238.69911 241.68904 244.67897 252.18878 257.41865 263.40849 269.39833 272.38825 278.3881 284.37794">species: Hsapiens</tspan></text>
<path stroke-width="2" stroke-linecap="butt" stroke-miterlimit="10" stroke-linejoin="miter" fill="none" stroke="#c0c0c0" d="M 219.293 400.18 C 223.137 408.137 227.805 417.805 232.156 426.82 "/>
<path d="M 235.332 425.352 L 236.527 435.879 L 229.027 428.398 Z M 235.332 425.352 " fill="#c0c0c0"/>
<path stroke-width="2" stroke-linecap="butt" stroke-miterlimit="10" stroke-linejoin="miter" fill="none" stroke="#c0c0c0" d="M 235.332 425.352 L 236.527 435.879 L 229.027 428.398 Z M 235.332 425.352 "/>
<path stroke-width="2" stroke-linecap="butt" stroke-miterlimit="10" stroke-linejoin="miter" fill="none" stroke="#57d9d1" d="M 408 436 L 328 436 C 322 436 316 442 316 448 L 316 465 C 316 471 322 477 328 477 L 408 477 C 414 477 420 471 420 465 L 420 448 C 420 442 414 436 408 436 "/>
<text xml:space="preserve" transform="matrix(1 0 0 1 0 0)" font-size="9.999756" font-family="DejaVuSans"><tspan y="448" x="339 344.98985 350.97969 356.97953 362.97938 366.71928 371.96916 378.719 381.7189 387.70875">Super_View</tspan><tspan y="459" x="351 354.7499 360.73976 366.72959 371.96946 374.95939 377.95933">runs: 2</tspan><tspan y="470" x="324 329.23988 335.2297 341.22956 346.46943 349.45936 355.4592 360.69908 363.689 366.67893 374.18876 379.4186 385.40846 391.3983 394.3882 400.38807 406.3779">species: Hsapiens</tspan></text>
<path stroke-width="2" stroke-linecap="butt" stroke-miterlimit="10" stroke-linejoin="miter" fill="none" stroke="#c0c0c0" d="M 238.348 395.629 C 259.785 405.527 290.242 419.594 316.25 431.602 "/>
<path d="M 317.992 428.551 L 325.605 435.922 L 315.059 434.906 Z M 317.992 428.551 " fill="#c0c0c0"/>
<path stroke-width="2" stroke-linecap="butt" stroke-miterlimit="10" stroke-linejoin="miter" fill="none" stroke="#c0c0c0" d="M 317.992 428.551 L 325.605 435.922 L 315.059 434.906 Z M 317.992 428.551 "/>
<path stroke-width="2" stroke-linecap="butt" stroke-miterlimit="10" stroke-linejoin="miter" fill="none" stroke="#c0c0c0" d="M 191.426 328.305 C 194.355 336.188 197.887 345.695 201.141 354.453 "/>
<path d="M 204.445 353.301 L 204.648 363.895 L 197.883 355.738 Z M 204.445 353.301 " fill="#c0c0c0"/>
<path stroke-width="2" stroke-linecap="butt" stroke-miterlimit="10" stroke-linejoin="miter" fill="none" stroke="#c0c0c0" d="M 204.445 353.301 L 204.648 363.895 L 197.883 355.738 Z M 204.445 353.301 "/>
<path stroke-width="2" stroke-linecap="butt" stroke-miterlimit="10" stroke-linejoin="miter" fill="none" stroke="#c0c0c0" d="M 247.094 477.312 C 247.523 485.094 248.023 494.16 248.484 502.555 "/>
<path d="M 251.988 502.504 L 249.043 512.68 L 245 502.887 Z M 251.988 502.504 " fill="#c0c0c0"/>
<path stroke-width="2" stroke-linecap="butt" stroke-miterlimit="10" stroke-linejoin="miter" fill="none" stroke="#c0c0c0" d="M 251.988 502.504 L 249.043 512.68 L 245 502.887 Z M 251.988 502.504 "/>
<path stroke-width="2" stroke-linecap="butt" stroke-miterlimit="10" stroke-linejoin="miter" fill="none" stroke="#c0c0c0" d="M 336.066 477.121 C 320.891 486.445 302.664 497.645 286.898 507.332 "/>
<path d="M 288.293 510.582 L 277.941 512.832 L 284.629 504.617 Z M 288.293 510.582 " fill="#c0c0c0"/>
<path stroke-width="2" stroke-linecap="butt" stroke-miterlimit="10" stroke-linejoin="miter" fill="none" stroke="#c0c0c0" d="M 288.293 510.582 L 277.941 512.832 L 284.629 504.617 Z M 288.293 510.582 "/>
<path stroke-width="2" stroke-linecap="butt" stroke-miterlimit="10" stroke-linejoin="miter" fill="none" stroke="#c0c0c0" d="M 246.605 698.312 C 239.59 706.785 231.32 716.781 223.875 725.773 "/>
<path d="M 226.406 728.207 L 217.332 733.68 L 221.012 723.746 Z M 226.406 728.207 " fill="#c0c0c0"/>
<path stroke-width="2" stroke-linecap="butt" stroke-miterlimit="10" stroke-linejoin="miter" fill="none" stroke="#c0c0c0" d="M 226.406 728.207 L 217.332 733.68 L 221.012 723.746 Z M 226.406 728.207 "/>
<path stroke-width="2" stroke-linecap="butt" stroke-miterlimit="10" stroke-linejoin="miter" fill="none" stroke="#c0c0c0" d="M 352.062 698.023 C 323.754 708.086 289.25 720.348 260.57 730.539 "/>
<path d="M 261.68 733.859 L 251.086 733.91 L 259.336 727.266 Z M 261.68 733.859 " fill="#c0c0c0"/>
<path stroke-width="2" stroke-linecap="butt" stroke-miterlimit="10" stroke-linejoin="miter" fill="none" stroke="#c0c0c0" d="M 261.68 733.859 L 251.086 733.91 L 259.336 727.266 Z M 261.68 733.859 "/>
</g>
</g>
</svg>
